<svg xmlns="http://www.w3.org/2000/svg" xml:space="preserve" width="16" height="16" fill-rule="evenodd" stroke-linejoin="round" stroke-miterlimit="1.414" clip-rule="evenodd" data-big="true" viewBox="0 0 24 24"><path fill="#C2185B" d="M20 18H4V8h16m0-2h-8l-2-2H4c-1.11 0-2 .89-2 2v12a2 2 0 0 0 2 2h16a2 2 0 0 0 2-2V8a2 2 0 0 0-2-2" data-folderColor="Controllers"/><path fill="#F48FB1" d="M17.293 17.786a2.31 2.31 0 0 1-2.308-2.308 2.31 2.31 0 0 1 2.308-2.307 2.31 2.31 0 0 1 2.308 2.307 2.31 2.31 0 0 1-2.308 2.308m4.899-1.668c.026-.211.046-.422.046-.64 0-.217-.02-.435-.046-.659l1.391-1.075a.33.33 0 0 0 .08-.422l-1.32-2.28c-.079-.146-.257-.205-.402-.146l-1.641.66a4.8 4.8 0 0 0-1.115-.647l-.244-1.747a.33.33 0 0 0-.33-.277h-2.637a.33.33 0 0 0-.33.277l-.243 1.747a4.8 4.8 0 0 0-1.114.646l-1.642-.659a.324.324 0 0 0-.402.145l-1.319 2.281a.325.325 0 0 0 .08.422l1.39 1.075c-.026.224-.046.442-.046.66s.02.428.046.639l-1.39 1.094a.325.325 0 0 0-.08.422l1.319 2.282c.079.145.257.197.402.145l1.642-.666c.342.264.698.488 1.114.653l.244 1.747a.33.33 0 0 0 .33.277h2.637a.33.33 0 0 0 .33-.277l.243-1.747a4.8 4.8 0 0 0 1.115-.653l1.641.666c.145.052.323 0 .403-.145l1.318-2.282a.33.33 0 0 0-.079-.422z" data-folderIconColor="Controllers"/></svg>