<svg xmlns="http://www.w3.org/2000/svg" xml:space="preserve" width="16" height="16" data-big="true" viewBox="0 0 24 24"><path fill="#9C27B0" d="M20 18H4V8h16m0-2h-8l-2-2H4c-1.11 0-2 .89-2 2v12a2 2 0 0 0 2 2h16a2 2 0 0 0 2-2V8a2 2 0 0 0-2-2" data-folderColor="Java"/><path fill="#C792EA" fill-rule="evenodd" stroke="#C792EA" stroke-width=".48" d="M15.049 20.279s-.587.341.417.457c1.217.139 1.84.119 3.18-.135 0 0 .353.221.846.413-3.007 1.288-6.805-.075-4.443-.735zm-.368-1.682s-.658.488.347.592c1.3.133 2.327.145 4.104-.198 0 0 .245.25.632.386-3.635 1.063-7.685.083-5.083-.78zm3.098-2.852c.74.853-.195 1.62-.195 1.62s1.881-.97 1.017-2.187c-.807-1.134-1.425-1.697 1.925-3.64 0 0-5.259 1.313-2.747 4.207zm3.976 5.777s.435.359-.478.635c-1.736.526-7.224.685-8.749.021-.547-.238.48-.57.803-.639.337-.072.53-.06.53-.06-.61-.429-3.94.844-1.691 1.208 6.13.994 11.176-.447 9.585-1.165zm-6.424-4.667s-2.792.663-.99.904c.762.102 2.28.079 3.693-.04 1.156-.097 2.316-.304 2.316-.304s-.407.174-.702.376c-2.835.745-8.31.398-6.734-.364 1.333-.645 2.417-.572 2.417-.572zm5.008 2.799c2.882-1.497 1.549-2.936.62-2.743-.229.047-.33.089-.33.089s.084-.133.246-.19c1.84-.647 3.255 1.907-.594 2.92 0 0 .045-.04.058-.076zM18.6 8.4s1.596 1.596-1.514 4.051c-2.494 1.97-.569 3.093-.001 4.375-1.456-1.313-2.524-2.469-1.808-3.545 1.053-1.58 3.967-2.345 3.323-4.881zm-2.987 15.312c2.766.177 7.014-.098 7.114-1.407 0 0-.194.496-2.286.89-2.361.444-5.273.393-7 .108 0 0 .354.292 2.172.409z" data-folderIconColor="Java"/></svg>