<svg xmlns="http://www.w3.org/2000/svg" width="16" height="16" fill-rule="evenodd" stroke-linejoin="round" stroke-miterlimit="1.414" clip-rule="evenodd" data-big="true" viewBox="0 0 24 24"><path fill="#4DB6AC" d="M20 18H4V8h16m0-2h-8l-2-2H4c-1.11 0-2 .89-2 2v12a2 2 0 0 0 2 2h16a2 2 0 0 0 2-2V8a2 2 0 0 0-2-2" data-folderColor="Main"/><path fill="#E0F2F1" d="M22.636 19.674V11.8H12.138v7.874h-1.05v1.05h12.598v-1.049zm-4.199 0h-2.1v-.524h2.1zm3.15-1.574h-8.399v-5.25h8.398z" data-folderIconColor="Main"/></svg>