<svg xmlns="http://www.w3.org/2000/svg" width="16" height="16" fill-rule="evenodd" stroke-linejoin="round" stroke-miterlimit="1.414" clip-rule="evenodd" data-big="true" viewBox="0 0 24 24"><path fill="#afb42b" d="M20 18H4V8h16m0-2h-8l-2-2H4c-1.11 0-2 .89-2 2v12a2 2 0 0 0 2 2h16a2 2 0 0 0 2-2V8a2 2 0 0 0-2-2" data-folderColor="Maps"/><path fill="#f0f4c3" d="M21.589 10.926v8.28h-8.28v-8.28zm.65-1.183h-9.58a.53.53 0 0 0-.532.532v9.58c0 .237.236.533.532.533h9.58c.237 0 .533-.296.533-.532v-9.58c0-.297-.296-.533-.532-.533m-5.382 2.365h3.549v1.183h-3.549zm0 2.366h3.549v1.183h-3.549zm0 2.366h3.549v1.183h-3.549zm-2.365-4.732h1.183v1.183h-1.183zm0 2.366h1.183v1.183h-1.183zm0 2.366h1.183v1.183h-1.183z" data-folderIconColor="Maps"/></svg>