<svg xmlns="http://www.w3.org/2000/svg" xml:space="preserve" width="16" height="16" fill-rule="evenodd" stroke-linejoin="round" stroke-miterlimit="1.414" clip-rule="evenodd" data-big="true" viewBox="0 0 24 24"><path fill="#00796B" d="M20 18H4V8h16m0-2h-8l-2-2H4c-1.11 0-2 .89-2 2v12a2 2 0 0 0 2 2h16a2 2 0 0 0 2-2V8a2 2 0 0 0-2-2" data-folderColor="Models"/><path fill="#80CBC4" d="M13.814 8.71a1.354 1.275 0 0 0-1.355 1.276v10.201a1.354 1.275 0 0 0 1.355 1.278h8.126a1.354 1.275 0 0 0 1.355-1.278v-10.2A1.354 1.275 0 0 0 21.94 8.71zm0 4.465h8.126v3.188h-8.126zm0 4.462h8.126v2.55h-8.126z" data-folderIconColor="Models"/></svg>