<svg id="Capa_1" data-name="Capa 1" xmlns="http://www.w3.org/2000/svg" viewBox="0 0 7.8 8.667"><defs><style>.cls-1{fill:#55c1f0;fill-rule:evenodd;}</style></defs><path class="cls-1" d="M11.9,9.95a.426.426,0,0,1-.229.381L8.247,12.255A.391.391,0,0,1,8,12.333a.4.4,0,0,1-.247-.078L4.329,10.331A.426.426,0,0,1,4.1,9.95V6.05a.43.43,0,0,1,.229-.381L7.753,3.745A.391.391,0,0,1,8,3.667a.408.408,0,0,1,.247.078l3.424,1.924a.429.429,0,0,1,.229.381ZM8,4.6,5.417,6.05,8,7.5,10.583,6.05Z" transform="translate(-4.1 -3.667)"/></svg>