<svg id="Capa_1" data-name="Capa 1" xmlns="http://www.w3.org/2000/svg" viewBox="0 0 11.596 12.884"><defs><style>.cls-1{fill:#55c1f0;fill-rule:evenodd;}</style></defs><path class="cls-1" d="M13.8,10.9a.632.632,0,0,1-.34.566L8.367,14.326A.582.582,0,0,1,8,14.442a.6.6,0,0,1-.367-.116L2.542,11.465A.632.632,0,0,1,2.2,10.9V5.1a.638.638,0,0,1,.34-.566L7.633,1.674A.582.582,0,0,1,8,1.558a.609.609,0,0,1,.367.116l5.091,2.861a.636.636,0,0,1,.34.566ZM8,2.944,4.16,5.1,8,7.257,11.84,5.1Z" transform="translate(-2.202 -1.558)"/></svg>